<?xml version="1.0" encoding="utf-8"?>
<!-- Generator: Adobe Illustrator 16.0.0, SVG Export Plug-In . SVG Version: 6.00 Build 0)  -->
<!DOCTYPE svg PUBLIC "-//W3C//DTD SVG 1.1//EN" "http://www.w3.org/Graphics/SVG/1.1/DTD/svg11.dtd">
<svg version="1.1" id="Layer_1" xmlns="http://www.w3.org/2000/svg" xmlns:xlink="http://www.w3.org/1999/xlink" x="0px" y="0px"
	 width="100px" height="100px" viewBox="0 0 100 100" enable-background="new 0 0 100 100" xml:space="preserve">
<g>
	<g>
		<path d="M50,100C22.43,100,0,77.57,0,50C0,22.43,22.43,0,50,0c27.57,0,50,22.43,50,50C100,77.57,77.57,100,50,100z M50,6
			C25.738,6,6,25.738,6,50c0,24.262,19.738,44,44,44c24.262,0,44-19.738,44-44C94,25.738,74.262,6,50,6z"/>
	</g>
	<path d="M50,20c-16.542,0-30,13.458-30,30s13.458,30,30,30s30-13.458,30-30S66.542,20,50,20z M51.8,76.332V71.6h-3.6v4.732
		c-13.124-0.891-23.643-11.406-24.532-24.531H28.4V48.2h-4.731C24.557,35.076,35.076,24.557,48.2,23.668V28.4h3.6v-4.731
		C64.925,24.557,75.441,35.076,76.332,48.2H71.6v3.601h4.732C75.441,64.926,64.925,75.441,51.8,76.332z"/>
	<path fill="#020201" d="M37.423,55.713c1.857-1.232,3.918-1.973,5.913-2.631c0.287-0.094,0.572-0.221,0.857-0.314l0.059-0.037
		c0.422-0.146,0.821-0.293,1.147-0.474c0.015-0.034,0.037-0.097,0.062-0.192c-1.641-2.396-2.757-6.101-2.757-9.274
		c0-2.691,0.846-4.688,2.441-5.901c-0.689-0.349-1.522-0.483-2.417-0.483c-2.386,0-4.32,0.953-4.32,4.375
		c0,2.272,0.852,5.06,2.124,6.678c-0.013,0.128-0.027,0.256-0.051,0.383c-0.076,0.348-0.197,0.737-0.522,0.931
		c-0.364,0.216-0.77,0.354-1.168,0.493c-1.652,0.556-3.362,1.046-4.828,2.021c-0.763,0.501-1.28,1.5-1.564,2.355
		c-0.294,0.889-0.415,1.758-0.396,2.957h4.506C36.794,56,37.099,55.926,37.423,55.713z"/>
	<path fill="#020201" d="M66.039,51.318c-1.467-0.973-3.178-1.479-4.829-2.036c-0.397-0.14-0.806-0.286-1.168-0.502
		c-0.326-0.193-0.448-0.587-0.522-0.935c-0.033-0.185-0.055-0.372-0.063-0.558c1.197-1.639,1.992-4.314,1.992-6.507
		c0-3.424-1.934-4.377-4.319-4.377c-0.907,0-1.749,0.139-2.444,0.499c1.582,1.216,2.422,3.206,2.422,5.886
		c0,3.09-1.037,6.647-2.613,9.059c0.005,0.026,0.01,0.055,0.014,0.082c0.041,0.188,0.075,0.284,0.096,0.334
		c0.347,0.19,0.76,0.344,1.223,0.506l0.691,0.229c2.045,0.681,4.16,1.502,6.065,2.767C62.891,55.967,63.18,56,63.452,56.6h4.546
		c0.018-1.199-0.104-2.068-0.396-2.957C67.318,52.788,66.801,51.822,66.039,51.318z"/>
	<path d="M61.785,56.854c-1.955-1.297-4.234-1.979-6.438-2.722c-0.533-0.187-1.072-0.384-1.559-0.674
		c-0.436-0.259-0.598-0.782-0.697-1.247c-0.044-0.246-0.072-0.496-0.086-0.745c1.598-2.185,2.657-5.751,2.657-8.675
		c0-4.565-2.578-5.837-5.76-5.837c-3.182,0-5.76,1.271-5.76,5.835c0,3.029,1.136,6.747,2.83,8.904
		c-0.016,0.17-0.036,0.341-0.066,0.512c-0.101,0.462-0.263,0.982-0.697,1.24c-0.487,0.287-1.026,0.471-1.559,0.658
		c-2.203,0.74-4.482,1.396-6.438,2.692c-1.017,0.669-1.706,1.962-2.086,3.103c-0.391,1.184-0.551,2.701-0.527,3.902H50h14.398
		c0.023-1.201-0.137-2.72-0.527-3.902C63.49,58.756,62.803,57.523,61.785,56.854z"/>
</g>
</svg>
